HIERARCHY
ROOT Hips
{
	OFFSET 0.00 0.00 0.00
	CHANNELS 6 Xposition Yposition Zposition Xrotation Yrotation Zrotation
	JOINT Spine
	{
		OFFSET 0.00000 5.89385 0.00000
		CHANNELS 3 Xrotation Yrotation Zrotation
		JOINT Head
		{
			OFFSET 0.00000 16.44715 0.00000
			CHANNELS 3 Xrotation Yrotation Zrotation
			End Site
			{
				OFFSET 0.00000 4.52755 0.00000
			}
		}
		JOINT LeftShoulder
		{
			OFFSET 0.00000 10.90038 0.00000
			CHANNELS 3 Xrotation Yrotation Zrotation
			JOINT LeftArm
			{
				OFFSET 8.21946 0.00000 0.00000
				CHANNELS 3 Xrotation Yrotation Zrotation
				JOINT LeftForeArm
				{
					OFFSET 11.09494 0.00000 0.00000
					CHANNELS 3 Yrotation Zrotation Xrotation
					JOINT LeftHand
					{
						OFFSET 9.10388 0.00000 0.00000
						CHANNELS 3 Xrotation Yrotation Zrotation
						JOINT LeftHandThumb1
						{
							OFFSET 0.00000 0.00000 0.00000
							CHANNELS 3 Xrotation Zrotation Yrotation
							End Site
							{
								OFFSET 0.00000 0.00000 3.93700
							}
						}
						End Site
						{
							OFFSET 3.93700 0.00000 0.00000
						}
					}
				}
			}
		}
		JOINT RightShoulder
		{
			OFFSET 0.00000 10.90038 0.00000
			CHANNELS 3 Xrotation Yrotation Zrotation
			JOINT RightArm
			{
				OFFSET -8.21946 0.00000 0.00000
				CHANNELS 3 Xrotation Yrotation Zrotation
				JOINT RightForeArm
				{
					OFFSET -11.09494 0.00000 0.00000
					CHANNELS 3 Yrotation Zrotation Xrotation
					JOINT RightHand
					{
						OFFSET -9.10388 0.00000 0.00000
						CHANNELS 3 Xrotation Yrotation Zrotation
						JOINT RightHandThumb1
						{
							OFFSET 0.00000 0.00000 0.00000
							CHANNELS 3 Xrotation Zrotation Yrotation
							End Site
							{
								OFFSET 0.00000 0.00000 3.93700
							}
						}
						End Site
						{
							OFFSET -3.93700 0.00000 0.00000
						}
					}
				}
			}
		}
	}
	JOINT LeftUpLeg
	{
		OFFSET 3.69794 0.00000 0.00000
		CHANNELS 3 Xrotation Yrotation Zrotation
		JOINT LeftLeg
		{
			OFFSET 0.00000 -16.18147 0.00000
			CHANNELS 3 Xrotation Yrotation Zrotation
			JOINT LeftFoot
			{
				OFFSET 0.00000 -16.50139 0.00000
				CHANNELS 3 Xrotation Yrotation Zrotation
				JOINT LeftToeBase
				{
					OFFSET 0.00000 -1.65857 6.18989
					CHANNELS 3 Xrotation Yrotation Zrotation
					End Site
					{
						OFFSET 0.00000 0.00000 2.95275
					}
				}
			}
		}
	}
	JOINT RightUpLeg
	{
		OFFSET -3.69794 0.00000 0.00000
		CHANNELS 3 Xrotation Yrotation Zrotation
		JOINT RightLeg
		{
			OFFSET 0.00000 -16.18147 0.00000
			CHANNELS 3 Xrotation Yrotation Zrotation
			JOINT RightFoot
			{
				OFFSET 0.00000 -16.50139 0.00000
				CHANNELS 3 Xrotation Yrotation Zrotation
				JOINT RightToeBase
				{
					OFFSET 0.00000 -1.65857 6.18989
					CHANNELS 3 Xrotation Yrotation Zrotation
					End Site
					{
						OFFSET 0.00000 0.00000 2.95275
					}
				}
			}
		}
	}
}
MOTION
Frames: 9
Frame Time: 0.008333
 8.3684 36.3828 -3.4747 100.3163 -61.2779 101.6681 -26.5527 1.1563 -0.0098 10.0036 11.3147 1.9295 7.7066 10.5483 29.6103 -38.2453 10.3245 -28.1339 -1.3624 0.0000 13.3812 1.8011 10.5530 -9.7428 33.1476 -0.0000 26.2537 34.3928 -31.2603 -12.3777 -67.0806 4.4090 33.9550 -1.5813 -0.0000 -5.6988 0.2835 -1.1917 13.3820 32.8623 0.0000 -24.3270 -31.5748 16.1784 8.8293 11.9852 -0.0000 0.0000 -5.6684 13.2245 -9.1064 7.0190 -0.0000 -0.0000 -30.8246 -2.2512 -4.9120 12.4950 -0.0000 -0.0000 -9.0195 -17.2254 12.1783 9.9664 -0.0000 0.0000
 8.3763 36.3828 -3.4982 100.2893 -61.2912 101.6599 -26.5025 1.1637 -0.0051 10.0617 11.3620 1.9610 7.7135 10.5565 29.5825 -38.0508 10.2784 -28.2160 -1.4777 0.0000 13.3735 1.7944 10.5431 -9.7160 33.1476 -0.0000 26.2537 34.4246 -31.2328 -12.3419 -67.0164 4.5024 34.0476 -1.5446 -0.0000 -5.6564 0.2704 -1.1433 13.3087 32.8623 0.0000 -24.3270 -31.6762 16.2172 8.8913 12.1304 0.0000 -0.0000 -5.6188 13.1537 -9.2029 6.9725 0.0000 -0.0000 -30.8889 -2.2842 -4.8955 12.6150 0.0000 0.0000 -9.0741 -17.1897 12.1178 9.9124 0.0000 -0.0000
 8.3850 36.3833 -3.5220 100.2979 -61.3084 101.6857 -26.4437 1.1763 0.0102 10.1460 11.4135 1.9762 7.7563 10.5920 29.5271 -37.8993 10.2272 -28.2942 -1.6139 0.0000 13.3783 1.7974 10.6092 -9.6728 33.1476 -0.0000 26.2537 34.4833 -31.1760 -12.3139 -66.9240 4.5941 34.1196 -1.4889 -0.0000 -5.6364 0.2795 -1.1782 13.3447 32.8623 0.0000 -24.3270 -31.7728 16.2485 8.9569 12.2821 -0.0000 0.0000 -5.5560 13.1032 -9.2706 6.8630 0.0000 0.0000 -30.9412 -2.2956 -4.8729 12.7196 -0.0000 0.0000 -9.1092 -17.1623 12.0927 9.8571 0.0000 0.0000
 8.3924 36.3844 -3.5495 100.2726 -61.3525 101.6577 -26.3589 1.1424 0.0445 10.2446 11.4787 1.9644 7.8361 10.7036 29.4363 -37.7950 10.1271 -28.4024 -1.7675 0.0000 13.3387 1.7945 10.6703 -9.6041 33.1476 -0.0000 26.2537 34.5876 -31.1303 -12.2548 -66.8575 4.7520 34.2107 -1.4336 -0.0000 -5.6728 0.2660 -1.1189 13.3725 32.8623 0.0000 -24.3270 -31.8464 16.2118 9.0337 12.4357 -0.0000 0.0000 -5.4856 13.0859 -9.3635 6.7435 -0.0000 -0.0000 -30.9410 -2.3091 -4.8287 12.7887 -0.0000 -0.0000 -9.1445 -17.1667 12.0346 9.8479 -0.0000 0.0000
 8.4003 36.3860 -3.5767 100.2732 -61.4067 101.6656 -26.2599 1.1561 0.0716 10.3590 11.4958 1.9481 7.8983 10.7459 29.3393 -37.6665 10.0985 -28.4818 -1.9909 0.0000 13.4535 1.7736 11.0584 -9.1707 33.1476 -0.0000 26.2537 34.5767 -31.0496 -12.2589 -66.7145 4.7911 34.2910 -1.2929 -0.0000 -5.5082 0.2871 -1.2099 13.3518 32.8623 0.0000 -24.3270 -31.8965 16.1571 9.1001 12.5831 0.0000 0.0000 -5.4196 13.0849 -9.4504 6.6672 -0.0000 0.0000 -30.9166 -2.3269 -4.7915 12.8272 -0.0000 -0.0000 -9.1711 -17.1613 11.9897 9.8499 -0.0000 0.0000
 8.4095 36.3880 -3.6067 100.2627 -61.4623 101.6601 -26.1506 1.1758 0.0970 10.4680 11.5296 1.9316 7.9654 10.7775 29.2493 -37.4369 10.0528 -28.5989 -2.2931 0.0000 13.2862 1.7696 11.1478 -9.0788 33.1476 -0.0000 26.2537 34.6824 -31.0033 -12.1843 -66.6311 4.8768 34.3832 -1.1462 -0.0000 -5.4902 0.2743 -1.1554 13.3560 32.8623 0.0000 -24.3270 -31.9478 16.0862 9.1651 12.7269 0.0000 -0.0000 -5.3336 13.1103 -9.5321 6.5366 0.0000 -0.0000 -30.8785 -2.3379 -4.7471 12.8387 -0.0000 0.0000 -9.1924 -17.1709 11.9096 9.8118 -0.0000 0.0000
 8.4202 36.3910 -3.6358 100.2467 -61.4907 101.6650 -26.0720 1.1974 0.1166 10.5990 11.5344 1.8889 8.0385 10.8304 29.1664 -37.2608 10.0573 -28.7536 -2.6354 0.0000 13.1852 1.7497 11.1559 -8.9722 33.1476 -0.0000 26.2537 34.7320 -30.9394 -12.1581 -66.4596 4.9785 34.4850 -0.9789 -0.0000 -5.4870 0.2677 -1.1225 13.4139 32.8623 0.0000 -24.3270 -32.0182 16.0230 9.2119 12.8589 0.0000 0.0000 -5.2346 13.1384 -9.5565 6.4426 0.0000 -0.0000 -30.8532 -2.3350 -4.7167 12.8199 0.0000 0.0000 -9.1988 -17.1612 11.8569 9.7995 -0.0000 -0.0000
 8.4312 36.3938 -3.6685 100.2294 -61.5354 101.6640 -25.9685 1.2329 0.1340 10.7245 11.5704 1.8519 8.1225 10.8901 29.0663 -37.1449 10.1013 -28.8960 -3.0691 0.0000 13.0915 1.7430 11.1951 -8.9078 33.1476 -0.0000 26.2537 34.8486 -30.9019 -12.0737 -66.3607 5.0603 34.6063 -0.7566 -0.0000 -5.3983 0.2660 -1.1142 13.4273 32.8623 0.0000 -24.3270 -32.0847 15.9680 9.2709 12.9993 0.0000 0.0000 -5.1287 13.1583 -9.6140 6.3153 -0.0000 0.0000 -30.8055 -2.3568 -4.6802 12.7896 0.0000 -0.0000 -9.2128 -17.1590 11.8066 9.8082 0.0000 -0.0000
 8.4444 36.3970 -3.7012 100.1946 -61.5654 101.6502 -25.8769 1.2923 0.1503 10.8399 11.5927 1.7951 8.2170 10.9528 28.9687 -37.0573 10.1114 -29.0691 -3.4829 0.0000 13.0200 1.7284 11.1986 -8.8319 33.1476 -0.0000 26.2537 34.9021 -30.8665 -12.0288 -66.1233 5.1383 34.7243 -0.4587 -0.0000 -5.2911 0.2666 -1.1056 13.5566 32.8623 0.0000 -24.3270 -32.1732 15.9409 9.3282 13.1348 0.0000 -0.0000 -5.0032 13.1490 -9.6536 6.1545 0.0000 0.0000 -30.7621 -2.3420 -4.6447 12.7383 -0.0000 0.0000 -9.2254 -17.1828 11.7667 9.8470 0.0000 0.0000
